<svg width="141" height="139" viewBox="0 0 141 139" fill="none" xmlns="http://www.w3.org/2000/svg">
<path fill-rule="evenodd" clip-rule="evenodd" d="M48.9476 35.7076C46.2049 34.5702 43.1985 33.9426 40.0513 33.9426C28.3434 33.9426 18.6595 42.5997 17.0492 53.8638C11.6123 57.3498 8 63.4504 8 70.4009C8 75.3783 9.85618 79.9263 12.9061 83.384C12.8409 84.1232 12.8077 84.8708 12.8077 85.6253C12.8077 99.5651 24.1082 110.866 38.0481 110.866C42.2221 110.866 46.1658 109.85 49.6385 108.052C54.1487 112.278 60.2195 114.872 66.8942 114.872C75.8725 114.872 83.7494 110.184 88.2218 103.135C89.8758 103.475 91.5868 103.654 93.3365 103.654C102.941 103.654 111.284 98.2905 115.549 90.4089C125.675 87.1257 133 77.6199 133 66.3945C133 53.7488 124.367 42.9417 111.89 41.3545C108.916 31.9472 100.123 25.1285 89.7308 25.1285C85.0626 25.1285 80.7096 26.5085 77.0663 28.8803C74.093 27.5007 70.7801 26.731 67.2949 26.731C59.8322 26.731 53.1958 30.2498 48.9476 35.7076Z" fill="white"/>
<path d="M50.3221 40.9182C47.3506 39.0374 43.8281 37.9486 40.0512 37.9486C29.7166 37.9486 21.286 46.1007 20.8391 56.3251C15.6119 58.8522 12.0063 64.2053 12.0063 70.4005C12.0063 74.986 13.9816 79.1101 17.1277 81.9685C16.9215 83.1563 16.814 84.3781 16.814 85.6249C16.814 97.3521 26.3208 106.859 38.048 106.859C42.6313 106.859 46.8755 105.407 50.3455 102.937C54.2376 107.772 60.2046 110.865 66.8942 110.865C75.4838 110.865 82.8822 105.765 86.2262 98.4276C88.4492 99.2174 90.8426 99.6473 93.3365 99.6473C101.992 99.6473 109.439 94.4681 112.745 87.0396C122.067 84.7966 128.994 76.4043 128.994 66.3941C128.994 54.6669 120.423 45.1602 108.696 45.1602C107.17 36.0649 99.2595 29.1345 89.7307 29.1345C85.0397 29.1345 80.7409 30.8142 77.4031 33.6049C74.466 31.7866 71.003 30.7371 67.2948 30.7371C59.9456 30.7371 53.5593 34.8596 50.3221 40.9182Z" fill="#742384"/>
<path d="M33.5435 57.4888L28.2433 57.8173L28.4849 49.4932L33.9725 49.153L33.7209 51.3763L31.285 51.5273L31.2558 52.5327L33.3839 52.4007L33.3279 54.331L31.1998 54.4629L31.1667 55.6023L33.79 55.4397L33.5435 57.4888ZM37.3217 48.8115C38.3657 48.7468 39.3128 48.7951 40.2183 48.8996L39.842 51.2778C38.9105 51.1483 38.1117 51.0506 37.6834 51.0772C37.3354 51.0987 37.1323 51.1916 37.1253 51.4329C37.1195 51.6339 37.3325 51.6609 37.6364 51.7758C38.5215 52.1224 40.342 52.4645 40.2867 54.3679C40.2334 56.2043 39.1335 57.276 37.099 57.4021C35.9881 57.471 35.1488 57.3892 34.2587 57.217L34.5118 54.94C35.6677 55.1627 36.359 55.2804 36.9212 55.2456C37.2022 55.2281 37.3388 55.126 37.3446 54.9249C37.3505 54.7239 37.1788 54.6542 36.9016 54.5376C36.0173 54.1643 34.115 53.8808 34.1749 51.8165C34.2267 50.0337 35.3809 48.9319 37.3217 48.8115ZM44.6115 54.6885C44.9728 54.6661 45.6054 54.5065 46.3466 54.2866L46.7131 56.3913C45.9026 56.6958 45.0815 56.9073 44.1713 56.9637C41.6149 57.1222 40.6554 55.6563 40.7336 52.962C40.8126 50.2409 41.8643 48.5299 44.6215 48.359C45.5316 48.3026 46.2623 48.4446 46.9372 48.6704L46.4262 51.0837C45.6565 50.904 45.0589 50.7805 44.6841 50.8037C43.9212 50.851 43.6616 51.5094 43.6243 52.7962C43.5858 54.1232 43.8084 54.7383 44.6115 54.6885ZM54.1044 56.2141L51.2936 56.3884L51.0633 55.1181L49.5776 55.2102L49.2592 56.5145L46.569 56.6813L48.5372 48.2501L52.6194 47.997L54.1044 56.2141ZM50.9127 53.4014L50.4851 50.6448L50.4315 50.6481L49.8286 53.4686L50.9127 53.4014ZM61.6997 55.7432L58.9693 55.9125L57.3782 52.733L57.2845 52.7388L57.1892 56.0229L54.6461 56.1805L54.8877 47.8564L57.7118 47.6813L59.1928 50.9747L59.2731 50.9697L59.3715 47.5784L61.9413 47.4191L61.6997 55.7432ZM68.0763 55.3479L62.7761 55.6765L63.0177 47.3523L68.5053 47.0121L68.2538 49.2355L65.8178 49.3865L65.7886 50.3919L67.9167 50.2599L67.8607 52.1902L65.7326 52.3221L65.6995 53.4615L68.3229 53.2988L68.0763 55.3479ZM75.9455 54.8601L73.1348 55.0343L72.9045 53.7641L71.4188 53.8562L71.1004 55.1605L68.4101 55.3272L70.3783 46.896L74.4606 46.643L75.9455 54.8601ZM72.7539 52.0474L72.3262 49.2908L72.2727 49.2941L71.6698 52.1146L72.7539 52.0474ZM34.7754 61.0766L32.4154 66.8961L32.3388 69.5368L29.4879 69.7135L29.5649 67.0595L27.6014 61.5213L30.6129 61.3346L31.1131 64.3543L31.1934 64.3493L31.8442 61.2583L34.7754 61.0766ZM41.0815 66.399L40.5059 66.4347L40.4305 69.0352L37.6197 69.2094L37.8614 60.8853L41.1004 60.6845C43.2687 60.55 44.2224 61.2937 44.1621 63.3714C44.1014 65.4625 43.1025 66.2737 41.0815 66.399ZM41.4132 63.7158C41.4323 63.059 41.32 62.7849 40.8381 62.8148L40.5571 62.8322L40.5026 64.7089L40.8506 64.6873C41.2789 64.6607 41.3941 64.3726 41.4132 63.7158ZM51.6518 68.3395L48.8411 68.5138L48.6108 67.2435L47.1251 67.3356L46.8067 68.6399L44.1164 68.8067L46.0846 60.3755L50.1669 60.1224L51.6518 68.3395ZM48.4602 65.5268L48.0325 62.7702L47.979 62.7735L47.3761 65.594L48.4602 65.5268ZM56.0734 62.1379C55.1499 62.1952 54.9966 62.8737 54.9639 63.9997C54.9238 65.3803 55.0371 66.0825 55.9204 66.0277C56.1614 66.0128 56.3094 65.9768 56.4979 65.925L56.5652 65.9074L56.5886 65.1032L55.9194 65.1447L55.973 63.2948L59.1318 63.099L58.9929 67.8844L56.9718 68.0097L56.7835 67.5932L56.73 67.5965C56.36 67.9138 55.8838 68.211 55.0673 68.2616C52.8723 68.3977 51.9821 66.8472 52.0583 64.2199C52.135 61.5793 53.0815 59.8079 55.9057 59.6328C56.963 59.5673 57.8291 59.6474 58.7311 59.8724L58.2163 62.4199C57.3533 62.2325 56.6356 62.1031 56.0734 62.1379ZM67.1145 67.3809L64.3038 67.5552L64.0734 66.2849L62.5878 66.377L62.2693 67.6813L59.5791 67.8481L61.5473 59.4169L65.6295 59.1638L67.1145 67.3809ZM63.9228 64.5682L63.4952 61.8116L63.4416 61.8149L62.8387 64.6354L63.9228 64.5682Z" fill="#F4C12A"/>
<path d="M36.2029 83.5133L32.844 83.7217L32.5687 82.2037L30.7932 82.3139L30.4128 83.8725L27.1978 84.072L29.5494 73.9962L34.4279 73.6936L36.2029 83.5133ZM32.3886 80.1522L31.8774 76.858L31.8134 76.8619L31.093 80.2326L32.3886 80.1522ZM41.3659 73.1033C44.6609 72.8988 45.8474 74.3763 45.7481 77.8043C45.6794 80.1751 45.0838 81.4433 43.6517 82.3796L43.6498 82.4437L45.9211 82.3028L45.6477 84.5744L44.9759 84.616C43.9842 84.6776 43.1887 84.583 42.4028 84.1521L41.0044 83.3754C37.5974 83.5867 36.5495 81.7329 36.6437 78.4811C36.7473 74.9089 38.103 73.3057 41.3659 73.1033ZM41.2701 75.8595C40.3264 75.918 40.1863 76.3425 40.1371 78.0405L40.1167 78.7453C40.0652 80.5234 40.2144 80.8819 41.1901 80.8214C42.1338 80.7629 42.2405 80.3885 42.2906 78.6584L42.312 77.9215C42.3626 76.1755 42.1978 75.8019 41.2701 75.8595ZM51.0394 79.9385C51.5992 79.9038 51.816 79.5865 51.8327 79.0099L52.0184 72.6023L55.4413 72.3899L55.2495 79.0058C55.1804 81.3926 53.5648 82.5961 50.8777 82.7628C48.1746 82.9305 46.7195 81.9015 46.7873 79.5627L46.98 72.9149L50.4669 72.6985L50.2807 79.1221C50.2645 79.6828 50.4796 79.9733 51.0394 79.9385ZM59.9559 82.0397L56.581 82.2491L56.8693 72.3013L60.2442 72.092L59.9559 82.0397ZM61.408 69.3974L59.2391 71.5147L57.1278 71.6457L58.1611 69.5988L61.408 69.3974ZM31.859 96.2231C32.2909 96.1963 33.0468 96.0055 33.9326 95.7427L34.3706 98.258C33.4021 98.6219 32.4208 98.8746 31.3332 98.9421C28.2781 99.1316 27.1314 97.3799 27.2248 94.1601C27.319 90.9082 28.5757 88.8635 31.8707 88.6591C32.9583 88.5916 33.8315 88.7613 34.638 89.0311L34.0275 91.9152C33.1077 91.7004 32.3935 91.5528 31.9457 91.5806C31.0339 91.6372 30.7238 92.4239 30.6792 93.9618C30.6332 95.5476 30.8993 96.2827 31.859 96.2231ZM39.3858 88.1928C42.6807 87.9884 43.8673 89.4659 43.7679 92.8939C43.6644 96.4661 42.3191 98.2605 39.0242 98.4649C35.7772 98.6664 34.5638 97.0147 34.6636 93.5707C34.7671 89.9984 36.1068 88.3963 39.3858 88.1928ZM39.2899 90.9491C38.3462 91.0076 38.2062 91.4321 38.157 93.1301L38.1366 93.8349C38.085 95.613 38.2343 95.9715 39.21 95.911C40.1537 95.8524 40.2603 95.4781 40.3105 93.748L40.3318 93.0111C40.3824 91.2651 40.2176 90.8915 39.2899 90.9491ZM53.0144 97.4371L49.7514 97.6395L47.8498 93.8399L47.7378 93.8469L47.6241 97.7715L44.5851 97.9601L44.8734 88.0123L48.2483 87.8029L50.0182 91.7386L50.1142 91.7327L50.2316 87.6799L53.3027 87.4894L53.0144 97.4371Z" fill="white"/>
<path fill-rule="evenodd" clip-rule="evenodd" d="M97.8345 44.032L93.6043 51.8962C93.4303 52.2183 93.0327 52.3365 92.7169 52.1604C92.4005 51.9868 92.2827 51.5841 92.4567 51.262L96.6866 43.3961C96.8606 43.0756 97.2581 42.9575 97.5743 43.132C97.8904 43.3068 98.0069 43.7098 97.8345 44.032ZM88.7913 52.364C86.3492 52.364 85.6771 50.7375 85.5047 49.9249C85.4312 49.6047 85.4296 49.3794 85.4296 49.2712C85.4296 48.8876 85.7362 48.5768 86.113 48.5768C86.4658 48.5768 86.7529 48.8471 86.7915 49.1919C86.7915 49.1951 86.7944 49.1968 86.7944 49.1997C86.7979 49.2207 86.8008 49.2583 86.8043 49.3081C86.8087 49.347 86.8151 49.3862 86.8151 49.4279C86.8151 49.4554 86.817 49.483 86.8183 49.5124C86.825 49.5688 86.8314 49.6303 86.8423 49.6934C86.8678 49.8281 86.9125 49.9783 86.9875 50.1305C86.9971 50.145 87.0035 50.1599 87.0115 50.1742C87.243 50.6109 87.7188 51.0399 88.6384 51.0888C90.0223 51.1289 90.4307 50.6595 90.4358 50.0767C90.3831 49.4024 90.3432 48.9164 88.745 48.2547C86.8758 47.4809 85.6835 47.0131 85.6835 45.3934C85.6835 43.7746 87.1664 43.1061 88.5247 43.1061C88.8667 43.1061 89.1633 43.1468 89.4284 43.2116C89.9584 43.3181 90.5456 43.5386 90.9847 43.9756V43.9721C91.0964 44.0724 91.2146 44.2201 91.3183 44.3975C91.3295 44.4159 91.3407 44.4334 91.3503 44.4512C91.3774 44.4998 91.403 44.5516 91.4285 44.605C91.4365 44.6228 91.4445 44.639 91.4525 44.6568C91.5866 44.9576 91.6824 45.3137 91.6824 45.6779C91.6824 45.7427 91.6903 45.8511 91.668 45.9725C91.6664 45.9835 91.6632 45.9936 91.6616 46.0049C91.6552 46.0324 91.6456 46.06 91.6345 46.0891C91.6297 46.102 91.6265 46.1134 91.6201 46.1247C91.6169 46.1344 91.6121 46.1441 91.6057 46.1558C91.4924 46.3818 91.2641 46.5391 90.9958 46.5391C90.7596 46.5391 90.5555 46.4177 90.4323 46.2348C90.423 46.2183 90.4134 46.2024 90.4051 46.1859C90.386 46.1542 90.3703 46.1182 90.3572 46.0823C90.3559 46.0781 90.3528 46.0732 90.3528 46.0684C90.3464 46.0506 90.34 46.0308 90.3368 46.0133C90.3045 45.9033 90.2905 45.7851 90.2905 45.6863C90.2905 45.665 90.2889 45.6456 90.2873 45.6245C90.2873 45.5918 90.2854 45.563 90.2825 45.5326C90.2617 45.3607 90.2119 45.225 90.1516 45.1149C90.1452 45.1036 90.1388 45.0923 90.1324 45.0809C90.1197 45.0615 90.1085 45.0437 90.0957 45.024C89.754 44.5257 89.0244 44.2729 88.4915 44.2729C87.773 44.2729 87.0019 44.673 87.0019 45.4079C87.0019 46.1409 87.6932 46.5812 88.8648 46.9729C91.1539 47.8228 91.6265 48.5104 91.8324 49.3489C92.0591 50.2664 91.6664 52.364 88.7913 52.364ZM101.555 44.6843C100.288 38.9193 94.5635 35.305 88.7725 36.6142C82.9796 37.9257 79.3126 43.6613 80.5816 49.4266C80.9999 51.3316 81.9051 53.0018 83.1405 54.337C83.7743 55.0249 82.3614 58.8183 83.1469 59.3136C83.7935 59.7216 86.6187 56.8635 87.3404 57.1257C89.2032 57.8008 91.28 57.9672 93.3648 57.4964C99.1561 56.1865 102.824 50.451 101.555 44.6843Z" fill="#10CBB4"/>
<path fill-rule="evenodd" clip-rule="evenodd" d="M97.8857 62.2677C98.7229 61.8083 100.287 61.6646 101.04 62.6997C101.794 63.7334 101.969 65.6889 101.859 67.2995C101.749 68.9677 101.094 71.8337 100.078 73.8455C99.0944 75.801 97.7634 77.1764 95.898 76.8784C94.4261 76.6433 93.7249 75.7512 93.6222 75.6099L93.6088 75.591C93.6088 75.591 93.5111 76.0391 93.2308 77.9299C93.1518 78.459 93.071 79.1433 92.9777 79.8752C94.2073 79.7007 95.1595 79.5695 95.5725 79.519C97.2674 79.3098 103.689 78.4746 105.48 78.4182C107.27 78.3596 107.639 78.6479 107.924 79.1074C108.207 79.5692 108.322 80.317 107.782 80.8646C107.243 81.41 102.781 81.6979 100.677 81.9848C99.3935 82.1616 95.6087 82.67 92.4419 83.1109C92.2758 83.7968 92.0767 84.3513 91.8313 84.6393C91.0198 85.5899 90.1806 85.2392 89.9349 84.6393C89.8039 84.3167 89.8133 83.8455 89.8503 83.4777C88.9975 83.6012 88.3229 83.7034 87.9469 83.7686C87.0251 83.9295 84.747 84.3547 82.3547 84.8399L81.7003 84.9735C79.6252 85.4005 77.5489 85.8583 76.2717 86.2153C76.0351 86.9453 75.7972 87.6756 75.5474 88.4007C74.59 91.1807 73.3527 93.8635 71.4327 96.112C70.7803 96.8747 70.0547 97.5907 69.1961 98.1017C68.3359 98.6121 67.3288 98.913 66.3375 98.8029C64.9244 98.6494 63.7843 97.6111 63.4249 96.2305C63.0523 94.8023 63.5013 93.2271 64.0453 91.8883C64.6286 90.4455 65.4952 89.1213 66.5486 87.9829C67.3624 87.1008 68.2831 86.3271 69.2712 85.6499C69.9713 85.1317 70.8619 84.5624 71.9216 84.0569C72.3422 83.858 72.8075 83.6715 73.2967 83.5014C73.3655 83.4726 73.4339 83.4438 73.5027 83.4163C73.5954 83.3787 73.6898 83.3402 73.7537 83.2637C73.8097 83.2006 73.8353 83.118 73.8608 83.0354C74.4556 81.0923 75.1048 79.1644 75.7329 77.2297C75.5858 77.6795 75.068 78.1608 74.7514 78.4811C74.0607 79.1757 73.1384 79.8526 72.1375 79.9187C71.5507 79.9575 70.9434 79.7843 70.4925 79.4008C69.9473 78.9361 69.6742 78.2074 69.6099 77.4885C69.5255 76.5626 69.7141 75.6043 69.9092 74.7023C70.1091 73.7761 70.3726 72.8632 70.6668 71.9632C70.8651 71.3556 71.0793 70.7523 71.2968 70.1532C71.4934 69.6153 71.7669 69.0699 71.8353 68.4983C71.9105 67.8652 71.7586 67.1951 71.9875 66.753C72.2158 66.311 72.8059 66.4133 73.362 66.5267C73.92 66.6381 74.526 67.3295 74.47 68.0951C74.4125 68.8626 74.0719 69.8423 73.8433 70.5901C73.6181 71.3382 73.124 72.8729 72.953 73.621C72.7835 74.3688 72.5053 75.6529 73.0678 76.0577C73.7873 76.5758 74.753 75.7322 75.5109 74.5611C76.203 73.4928 77.1591 70.7439 77.4437 69.9184C77.728 69.0942 78.3612 67.0639 78.5659 66.4292C78.7689 65.7931 79.2422 65.1811 79.9438 64.7584C80.6442 64.3361 81.3845 64.26 81.8766 64.4313C82.3691 64.6046 81.9902 65.8705 81.8766 66.311L81.87 66.3358C81.7599 66.7463 80.6497 70.7625 79.5671 74.6761L79.3965 75.2927C78.3763 78.9803 77.4294 82.4007 77.4294 82.4007C77.4278 82.4075 77.4258 82.412 77.4242 82.4169C79.036 82.0849 80.4939 81.8521 81.3125 81.6772L81.4204 81.6548C82.3943 81.458 85.2279 81.017 88.1247 80.5845L88.8202 80.481C89.3682 80.3997 89.9132 80.3195 90.4432 80.242C90.5996 79.4202 90.7839 78.4518 90.9842 77.4009C90.2515 77.8656 89.284 78.2797 88.5184 78.0275C87.3648 77.6455 87.3339 76.3042 87.3339 76.3042C86.688 77.9035 85.4434 79.1337 83.7604 78.8821C82.0776 78.6328 81.5975 77.4542 81.3914 76.5764C81.1836 75.6986 80.7503 73.562 81.9429 69.9743C83.1358 66.3863 85.1351 64.0967 86.7854 63.8564C88.4356 63.6164 89.2455 64.6813 89.2455 64.6813L89.4711 63.9675C89.6967 63.254 90.443 63.2959 91.1993 63.5198C91.9557 63.7452 92.0206 64.4024 91.8628 65.0836C91.7974 65.3668 91.5867 66.3229 91.3633 67.3419L91.2287 67.956C90.9608 69.1798 90.7124 70.3187 90.7124 70.3187C90.7124 70.3187 89.5198 74.9742 90.6735 74.6295C91.0776 74.5095 91.3834 74.3211 91.6102 74.1269C91.6712 73.8025 91.7335 73.4769 91.7958 73.1512L91.9836 72.1707C92.8378 67.7142 93.6564 63.4858 93.7555 63.1268C93.9706 62.347 94.4676 62.4117 95.4222 62.6414C96.3784 62.8712 96.1457 63.2562 96.1457 63.2562L95.984 64.3886C96.1404 64.0068 97.0448 62.7272 97.8857 62.2677ZM72.7051 87.2011C72.7051 87.2011 70.0816 88.1789 68.0848 90.7049C66.4926 92.7186 65.7587 94.7699 66.3375 95.4824C67.0618 96.3762 68.4478 94.9011 68.9115 94.3651C69.8513 93.2792 70.5741 92.0224 71.2168 90.7389C71.5283 90.1136 71.8241 89.4808 72.0927 88.8363C72.219 88.5322 72.3406 88.2261 72.4541 87.9182C72.4877 87.8242 72.6268 87.23 72.7051 87.2011ZM106.366 61.7958C107.306 61.0073 108.34 60.819 109.549 61.0229C109.893 61.0807 110.228 61.2084 110.512 61.4079C112.432 62.7499 111.261 65.5695 110.223 67.1129C109.47 68.2301 108.378 69.0422 107.138 69.5657C106.721 69.7429 105.932 70.0525 105.171 70.0701C105.14 70.0714 104.836 70.8598 104.77 71.324C104.695 71.8606 104.741 72.695 105.119 73.0461C106.011 73.8809 107.577 72.853 108.272 72.2704C108.585 72.0071 108.918 71.7597 109.178 71.4456C109.422 71.1551 109.848 70.5042 110.263 70.6383C110.604 70.7481 110.812 71.3801 110.92 71.6464C110.92 71.6464 111.229 72.3921 111.008 72.8421C110.786 73.2922 109.199 74.7108 108.834 74.9943C108.472 75.2771 107.169 76.0908 106.02 76.3749C105.108 76.5999 104.06 76.5013 103.289 75.9331C102.795 75.5711 102.448 75.0393 102.238 74.4679C102.026 73.8981 101.946 73.2903 101.908 72.6838C101.765 70.1991 102.433 67.5196 103.63 65.3304C104.681 63.4024 105.105 62.8501 106.366 61.7958ZM88.7505 67.5697C88.9615 66.5006 88.2117 66.2722 87.566 66.5232C86.7626 66.8343 85.6723 67.4505 84.7877 69.4509C84.3206 70.5106 84.0525 71.6087 83.9843 72.5374C83.9162 73.467 84.0574 75.1259 85.1545 75.3366C86.1361 75.5234 86.8438 73.9663 87.4816 72.0545C88.0773 70.2655 88.5493 68.5876 88.7505 67.5697ZM99.1612 67.3707C99.2411 66.2807 98.9967 64.1553 97.4799 65.2589C96.2548 66.1467 95.6715 68.2475 95.1973 70.0303C94.6954 71.9146 94.3568 73.7795 94.3568 73.7795C95.0718 74.5751 96.3771 74.1532 96.9943 73.5139C97.6999 72.7865 98.0613 71.7916 98.3941 70.8388C98.7865 69.7164 99.0749 68.563 99.1612 67.3707ZM109.024 64.0555C108.952 63.6609 108.612 63.4678 108.214 63.5671C107.937 63.6357 107.708 63.8256 107.508 64.0264C106.558 64.9889 105.793 66.8256 105.657 67.5646C105.667 67.5036 105.859 67.5697 106.518 67.3012C106.757 67.2023 106.981 67.0922 107.199 66.9533C107.674 66.652 108.118 66.2912 108.458 65.8424C108.816 65.3687 109.139 64.662 109.024 64.0555Z" fill="white"/>
</svg>
